<svg width="302" height="136" viewBox="0 0 302 136" fill="none" xmlns="http://www.w3.org/2000/svg">
<path d="M69.12 93L69.024 52.68L49.248 85.896H42.24L22.56 53.544V93H7.968V25.8H20.832L45.984 67.56L70.752 25.8H83.52L83.712 93H69.12ZM160.808 93L160.712 52.68L140.936 85.896H133.928L114.248 53.544V93H99.6555V25.8H112.52L137.672 67.56L162.44 25.8H175.208L175.4 93H160.808ZM191.343 25.8H206.895V93H191.343V25.8ZM270.048 94.152C264.736 94.152 259.584 93.448 254.592 92.04C249.664 90.568 245.696 88.68 242.688 86.376L247.968 74.664C250.848 76.776 254.272 78.472 258.24 79.752C262.208 81.032 266.176 81.672 270.144 81.672C274.56 81.672 277.824 81.032 279.936 79.752C282.048 78.408 283.104 76.648 283.104 74.472C283.104 72.872 282.464 71.56 281.184 70.536C279.968 69.448 278.368 68.584 276.384 67.944C274.464 67.304 271.84 66.6 268.512 65.832C263.392 64.616 259.2 63.4 255.936 62.184C252.672 60.968 249.856 59.016 247.488 56.328C245.184 53.64 244.032 50.056 244.032 45.576C244.032 41.672 245.088 38.152 247.2 35.016C249.312 31.816 252.48 29.288 256.704 27.432C260.992 25.576 266.208 24.648 272.352 24.648C276.64 24.648 280.832 25.16 284.928 26.184C289.024 27.208 292.608 28.68 295.68 30.6L290.88 42.408C284.672 38.888 278.464 37.128 272.256 37.128C267.904 37.128 264.672 37.832 262.56 39.24C260.512 40.648 259.488 42.504 259.488 44.808C259.488 47.112 260.672 48.84 263.04 49.992C265.472 51.08 269.152 52.168 274.08 53.256C279.2 54.472 283.392 55.688 286.656 56.904C289.92 58.12 292.704 60.04 295.008 62.664C297.376 65.288 298.56 68.84 298.56 73.32C298.56 77.16 297.472 80.68 295.296 83.88C293.184 87.016 289.984 89.512 285.696 91.368C281.408 93.224 276.192 94.152 270.048 94.152Z" fill="white"/>
<path d="M227.547 21C230.235 21 232.443 21.864 234.171 23.592C235.899 25.256 236.763 27.464 236.763 30.216C236.763 31.496 236.603 32.776 236.283 34.056C235.963 35.336 235.291 37.256 234.267 39.816L228.699 53.64H219.195L223.323 38.472C221.723 37.768 220.475 36.712 219.579 35.304C218.683 33.896 218.235 32.2 218.235 30.216C218.235 27.464 219.099 25.256 220.827 23.592C222.619 21.864 224.859 21 227.547 21Z" fill="#C75C20"/>
<path d="M112.376 128.192C110.157 128.192 108.152 127.701 106.36 126.72C104.589 125.739 103.192 124.384 102.168 122.656C101.165 120.907 100.664 118.955 100.664 116.8C100.664 114.645 101.165 112.704 102.168 110.976C103.192 109.227 104.6 107.861 106.392 106.88C108.184 105.899 110.189 105.408 112.408 105.408C114.072 105.408 115.608 105.685 117.016 106.24C118.424 106.795 119.619 107.605 120.6 108.672L119.096 110.176C117.347 108.405 115.139 107.52 112.472 107.52C110.701 107.52 109.091 107.925 107.64 108.736C106.189 109.547 105.048 110.656 104.216 112.064C103.405 113.472 103 115.051 103 116.8C103 118.549 103.405 120.128 104.216 121.536C105.048 122.944 106.189 124.053 107.64 124.864C109.091 125.675 110.701 126.08 112.472 126.08C115.16 126.08 117.368 125.184 119.096 123.392L120.6 124.896C119.619 125.963 118.413 126.784 116.984 127.36C115.576 127.915 114.04 128.192 112.376 128.192ZM144.368 105.6V128H142.032V117.664H128.016V128H125.648V105.6H128.016V115.584H142.032V105.6H144.368ZM165.727 122.016H153.247L150.559 128H148.095L158.335 105.6H160.671L170.911 128H168.415L165.727 122.016ZM164.863 120.096L159.487 108.064L154.111 120.096H164.863ZM177.844 107.648H169.972V105.6H188.084V107.648H180.212V128H177.844V107.648Z" fill="#C75C20"/>
</svg>
